<svg width="142" height="33" viewBox="0 0 142 33" fill="none" xmlns="http://www.w3.org/2000/svg">
<path d="M30.3918 20.5902C31.9812 22.2053 34.3398 23.3076 37.6212 23.3076C42.2358 23.3076 44.4662 20.9491 44.4662 17.8215C44.4662 14.0273 40.8771 13.1813 38.0571 12.5404C36.0831 12.0789 34.6474 11.72 34.6474 10.5664C34.6474 9.54091 35.5191 8.82309 37.1598 8.82309C38.8262 8.82309 40.672 9.41273 42.0563 10.6945L44.0816 8.02836C42.3896 6.46454 40.1336 5.64418 37.4162 5.64418C33.3912 5.64418 30.9302 7.95145 30.9302 10.7971C30.9302 14.6169 34.5192 15.386 37.3136 16.0269C39.2876 16.4884 40.7745 16.9242 40.7745 18.206C40.7745 19.1802 39.8003 20.1287 37.8007 20.1287C35.4422 20.1287 33.5707 19.0776 32.3658 17.8215L30.3918 20.5902ZM46.0456 16.796C46.0456 20.7696 48.8912 23.3076 52.6598 23.3076C54.5825 23.3076 56.5309 22.718 57.7614 21.59L56.3258 19.4878C55.531 20.2569 54.1723 20.7184 53.0187 20.7184C50.9165 20.7184 49.6603 19.4109 49.4552 17.8471H58.6587V17.1293C58.6587 13.0787 56.1463 10.31 52.4547 10.31C48.6861 10.31 46.0456 13.2069 46.0456 16.796ZM52.4547 12.8993C54.6081 12.8993 55.4285 14.4631 55.5054 15.6424H49.404C49.5578 14.4118 50.4294 12.8993 52.4547 12.8993ZM61.0104 23H64.2662V14.822C64.8046 14.0273 66.2402 13.412 67.317 13.412C67.6759 13.412 67.9835 13.4633 68.2142 13.5145V10.3356C66.6761 10.3356 65.1379 11.2073 64.2662 12.3096V10.6176H61.0104V23ZM73.4531 23H76.9653L81.9387 10.6176H78.4265L75.1963 19.2315L71.9662 10.6176H68.4796L73.4531 23ZM91.6214 23.3076C95.5182 23.3076 97.6716 21.2311 98.9022 19.1033L95.7745 17.5907C95.0567 19.0007 93.5185 20.0775 91.6214 20.0775C88.6476 20.0775 86.3916 17.6933 86.3916 14.4631C86.3916 11.2329 88.6476 8.84873 91.6214 8.84873C93.5185 8.84873 95.0567 9.95109 95.7745 11.3355L98.9022 9.79727C97.6973 7.66945 95.5182 5.61854 91.6214 5.61854C86.6224 5.61854 82.6487 9.20763 82.6487 14.4631C82.6487 19.7185 86.6224 23.3076 91.6214 23.3076ZM100.992 23H104.248V14.822C104.786 14.0273 106.222 13.412 107.299 13.412C107.658 13.412 107.965 13.4633 108.196 13.5145V10.3356C106.658 10.3356 105.12 11.2073 104.248 12.3096V10.6176H100.992V23ZM117.665 23H120.921V15.0015C120.921 11.438 118.331 10.31 115.511 10.31C113.563 10.31 111.615 10.9253 110.102 12.2584L111.333 14.4375C112.384 13.4633 113.614 12.9762 114.947 12.9762C116.588 12.9762 117.665 13.7965 117.665 15.0527V16.7704C116.844 15.7705 115.383 15.2578 113.742 15.2578C111.768 15.2578 109.436 16.3089 109.436 19.2058C109.436 21.9745 111.768 23.3076 113.742 23.3076C115.358 23.3076 116.819 22.718 117.665 21.7182V23ZM117.665 20.0262C117.126 20.744 116.101 21.1029 115.05 21.1029C113.768 21.1029 112.717 20.4364 112.717 19.2827C112.717 18.0778 113.768 17.4113 115.05 17.4113C116.101 17.4113 117.126 17.7702 117.665 18.488V20.0262ZM124.868 23H128.149V13.4633H130.662V10.6176H128.149V10.0024C128.149 8.82309 128.765 8.20782 129.687 8.20782C130.072 8.20782 130.457 8.28473 130.739 8.46418L131.405 6.15691C130.815 5.84927 129.969 5.64418 129.047 5.64418C126.611 5.64418 124.868 7.25927 124.868 9.95109V10.6176H122.817V13.4633H124.868V23ZM136.69 23.3076C138.049 23.3076 138.92 22.9487 139.407 22.5129L138.715 20.0518C138.536 20.2313 138.074 20.4107 137.587 20.4107C136.869 20.4107 136.459 19.8211 136.459 19.052V13.4633H138.972V10.6176H136.459V7.23364H133.178V10.6176H131.127V13.4633H133.178V19.9236C133.178 22.1284 134.408 23.3076 136.69 23.3076Z" fill="white"/>
<path d="M18.049 13.9988H16.9087C16.5702 12.6876 15.8706 11.4976 14.8895 10.564C13.9084 9.63052 12.6851 8.99091 11.3587 8.71787C10.0323 8.44484 8.65582 8.54934 7.3858 9.0195C6.11578 9.48966 5.00309 10.3066 4.17419 11.3776C3.34528 12.4485 2.83338 13.7305 2.69666 15.0778C2.55994 16.4252 2.80388 17.7838 3.40076 18.9995C3.99764 20.2151 4.92353 21.2389 6.07322 21.9546C7.22291 22.6703 8.55029 23.0492 9.90455 23.0482H18.049C19.249 23.0482 20.3998 22.5715 21.2484 21.7229C22.0969 20.8744 22.5736 19.7235 22.5736 18.5235C22.5736 17.3235 22.0969 16.1726 21.2484 15.3241C20.3998 14.4755 19.249 13.9988 18.049 13.9988Z" fill="white" stroke="white" stroke-width="3.48494" stroke-linecap="round" stroke-linejoin="round"/>
<mask id="mask0" mask-type="alpha" maskUnits="userSpaceOnUse" x="2" y="8" width="21" height="16">
<path d="M17.9578 14.0003H16.8368C16.5039 12.6887 15.816 11.4984 14.8514 10.5646C13.8868 9.63081 12.684 8.99102 11.3798 8.71791C10.0756 8.44481 8.72225 8.54934 7.47353 9.01962C6.22481 9.48991 5.13078 10.3071 4.31578 11.3783C3.50077 12.4496 2.99746 13.7319 2.86303 15.0796C2.7286 16.4273 2.96845 17.7863 3.55532 19.0023C4.14219 20.2182 5.05255 21.2423 6.18296 21.9582C7.31337 22.6741 8.61849 23.0531 9.95003 23.0521H17.9578C19.1377 23.0521 20.2693 22.5753 21.1036 21.7265C21.9379 20.8777 22.4066 19.7265 22.4066 18.5262C22.4066 17.3258 21.9379 16.1747 21.1036 15.3259C20.2693 14.4771 19.1377 14.0003 17.9578 14.0003Z" fill="white"/>
</mask>
<g mask="url(#mask0)">
<g filter="url(#filter0_d)">
<path d="M-10.918 9.90644L-9.90278 9.43893C-8.8876 8.93614 -6.85723 8.05405 -4.82686 8.9626C-2.79649 9.90644 -0.766122 12.7291 1.26425 14.608C3.29462 16.5221 5.32499 17.4042 7.35536 17.907C9.38573 18.3745 11.4161 18.3745 13.4465 17.4307C15.4768 16.5221 17.5072 14.5815 19.5376 14.608C21.5679 14.5815 23.5983 16.5221 24.6135 17.4307L25.6287 18.3745V26.8425H24.6135C23.5983 26.8425 21.5679 26.8425 19.5376 26.8425C17.5072 26.8425 15.4768 26.8425 13.4465 26.8425C11.4161 26.8425 9.38573 26.8425 7.35536 26.8425C5.32499 26.8425 3.29462 26.8425 1.26425 26.8425C-0.766122 26.8425 -2.79649 26.8425 -4.82686 26.8425C-6.85723 26.8425 -8.8876 26.8425 -9.90278 26.8425H-10.918V9.90644Z" fill="white"/>
</g>
<g opacity="0.8" filter="url(#filter1_d)">
<path d="M-10.918 12.7917L-9.90278 12.3242C-8.8876 11.8214 -6.85723 10.9393 -4.82686 11.8479C-2.79649 12.7917 -0.766122 15.6144 1.26425 17.4932C3.29462 19.4074 5.32499 20.2894 7.35536 20.7922C9.38573 21.2597 11.4161 21.2597 13.4465 20.3159C15.4768 19.4074 17.5072 17.4668 19.5376 17.4932C21.5679 17.4668 23.5983 19.4074 24.6135 20.3159L25.6287 21.2597V29.7278H24.6135C23.5983 29.7278 21.5679 29.7278 19.5376 29.7278C17.5072 29.7278 15.4768 29.7278 13.4465 29.7278C11.4161 29.7278 9.38573 29.7278 7.35536 29.7278C5.32499 29.7278 3.29462 29.7278 1.26425 29.7278C-0.766122 29.7278 -2.79649 29.7278 -4.82686 29.7278C-6.85723 29.7278 -8.8876 29.7278 -9.90278 29.7278H-10.918V12.7917Z" fill="white"/>
</g>
</g>
<defs>
<filter id="filter0_d" x="-12.37" y="7.11715" width="39.4508" height="21.1774" filterUnits="userSpaceOnUse" color-interpolation-filters="sRGB">
<feFlood flood-opacity="0" result="BackgroundImageFix"/>
<feColorMatrix in="SourceAlpha" type="matrix" values="0 0 0 0 0 0 0 0 0 0 0 0 0 0 0 0 0 0 127 0"/>
<feOffset/>
<feGaussianBlur stdDeviation="0.72603"/>
<feColorMatrix type="matrix" values="0 0 0 0 0 0 0 0 0 0 0 0 0 0 0 0 0 0 0.25 0"/>
<feBlend mode="normal" in2="BackgroundImageFix" result="effect1_dropShadow"/>
<feBlend mode="normal" in="SourceGraphic" in2="effect1_dropShadow" result="shape"/>
</filter>
<filter id="filter1_d" x="-13.8221" y="6.37226" width="42.3549" height="24.0816" filterUnits="userSpaceOnUse" color-interpolation-filters="sRGB">
<feFlood flood-opacity="0" result="BackgroundImageFix"/>
<feColorMatrix in="SourceAlpha" type="matrix" values="0 0 0 0 0 0 0 0 0 0 0 0 0 0 0 0 0 0 127 0"/>
<feOffset dy="-2.17809"/>
<feGaussianBlur stdDeviation="1.45206"/>
<feColorMatrix type="matrix" values="0 0 0 0 0 0 0 0 0 0 0 0 0 0 0 0 0 0 0.15 0"/>
<feBlend mode="normal" in2="BackgroundImageFix" result="effect1_dropShadow"/>
<feBlend mode="normal" in="SourceGraphic" in2="effect1_dropShadow" result="shape"/>
</filter>
</defs>
</svg>
